<?xml version="1.0" standalone="no"?><!DOCTYPE svg PUBLIC "-//W3C//DTD SVG 1.1//EN" "http://www.w3.org/Graphics/SVG/1.1/DTD/svg11.dtd"><svg t="1672825274184" class="icon" viewBox="0 0 1024 1024" version="1.1" xmlns="http://www.w3.org/2000/svg" p-id="2151" width="200" height="200"><path d="M529.066667 885.76c-17.066667 0-32.426667-5.12-46.08-17.066667l-20.48-18.773333C360.106667 754.346667 119.466667 532.48 119.466667 358.4c0-131.413333 107.52-238.933333 238.933333-238.933333 66.56 0 126.293333 25.6 170.666667 71.68C573.44 145.066667 633.173333 119.466667 699.733333 119.466667c131.413333 0 238.933333 107.52 238.933334 238.933333 0 177.493333-245.76 401.066667-349.866667 496.64l-13.653333 11.946667c-11.946667 13.653333-29.013333 18.773333-46.08 18.773333z m-1.706667-66.56z m1.706667-1.706667zM358.4 187.733333c-93.866667 0-170.666667 76.8-170.666667 170.666667 0 143.36 233.813333 360.106667 320.853334 442.026667l18.773333 17.066666 13.653333-11.946666C631.466667 723.626667 870.4 505.173333 870.4 358.4c0-93.866667-76.8-170.666667-170.666667-170.666667-58.026667 0-110.933333 29.013333-141.653333 76.8L529.066667 308.906667l-29.013334-46.08C469.333333 216.746667 416.426667 187.733333 358.4 187.733333z" fill="#8a8a8a" p-id="2152"></path><path d="M482.986667 691.2c-8.533333 0-17.066667-3.413333-23.893334-10.24-85.333333-88.746667-145.066667-160.426667-184.32-228.693333-10.24-17.066667-3.413333-37.546667 11.946667-46.08 17.066667-10.24 37.546667-3.413333 46.08 11.946666 35.84 61.44 93.866667 131.413333 174.08 215.04 13.653333 13.653333 13.653333 35.84 0 47.786667-6.826667 6.826667-15.36 10.24-23.893333 10.24zM271.36 382.293333c-13.653333 0-27.306667-8.533333-32.426667-23.893333 0-1.706667-1.706667-3.413333-1.706666-5.12-1.706667-3.413333-1.706667-5.12-3.413334-8.533333-6.826667-17.066667 3.413333-37.546667 22.186667-42.666667 17.066667-6.826667 37.546667 3.413333 42.666667 22.186667 0 1.706667 1.706667 3.413333 1.706666 5.12 1.706667 3.413333 1.706667 5.12 3.413334 8.533333 6.826667 17.066667-3.413333 37.546667-22.186667 42.666667-3.413333 1.706667-6.826667 1.706667-10.24 1.706666z" fill="#8a8a8a" p-id="2153"></path></svg>
