<?xml version="1.0" standalone="no"?><!DOCTYPE svg PUBLIC "-//W3C//DTD SVG 1.1//EN" "http://www.w3.org/Graphics/SVG/1.1/DTD/svg11.dtd"><svg t="1672564110410" class="icon" viewBox="0 0 1024 1024" version="1.1" xmlns="http://www.w3.org/2000/svg" p-id="4117" xmlns:xlink="http://www.w3.org/1999/xlink" width="200" height="200"><path d="M527.552 252.896a272 272 0 1 0 0 544 272 272 0 0 0 0-544z m-336 272c0-185.6 150.4-336 336-336 185.568 0 336 150.4 336 336 0 185.568-150.432 336-336 336-185.6 0-336-150.432-336-336z" fill="#198bfa" p-id="4118"></path><path d="M521.504 311.584a32 32 0 0 1 36.864-26.24c66.72 11.2 123.52 46.016 160.864 93.92a32 32 0 0 1-50.464 39.36c-27.328-35.04-69.792-61.6-120.96-70.176a32 32 0 0 1-26.304-36.864z" fill="#198bfa" p-id="4119"></path><path d="M231.584 523.232a32 32 0 0 1-1.088 45.248c-36.384 34.656-61.76 66.4-75.424 92.48-14.336 27.392-12.128 40.832-9.248 46.016 2.528 4.512 10.496 12.096 34.24 15.488 23.072 3.264 55.2 1.504 94.976-6.4 79.2-15.808 181.44-54.56 287.232-113.248a32 32 0 0 1 31.04 55.968c-109.92 60.992-218.464 102.624-305.76 120-43.456 8.672-83.456 11.712-116.48 7.04-32.416-4.608-64.544-17.792-81.184-47.808-18.88-33.952-9.056-73.248 8.48-106.72 18.176-34.752 48.96-72 88-109.152a32 32 0 0 1 45.216 1.088zM680.64 276.896a32 32 0 0 1 23.616-38.624c49.44-11.84 94.88-17.184 132.064-13.632 36.032 3.392 72.544 16.128 90.72 48.896 13.152 23.712 12.192 50.304 4.864 74.688-7.328 24.288-21.76 49.408-40.544 74.24-37.696 49.856-97.184 104.256-170.304 156.16a32 32 0 1 1-37.088-52.16c70.016-49.728 123.936-99.744 156.32-142.592 16.256-21.472 26.016-39.744 30.336-54.112 4.288-14.272 2.432-21.568 0.448-25.184-2.752-4.96-12.256-13.536-40.8-16.224-27.392-2.624-65.152 1.12-111.04 12.16a32 32 0 0 1-38.592-23.616z" fill="#198bfa" p-id="4120"></path></svg>