<?xml version="1.0" standalone="no"?><!DOCTYPE svg PUBLIC "-//W3C//DTD SVG 1.1//EN" "http://www.w3.org/Graphics/SVG/1.1/DTD/svg11.dtd"><svg t="1672825493432" class="icon" viewBox="0 0 1024 1024" version="1.1" xmlns="http://www.w3.org/2000/svg" p-id="6032" width="200" height="200"><path d="M832 250.352L468.215 612.354c-15.66 15.582-40.986 15.52-56.569-0.14-15.582-15.659-15.52-40.985 0.14-56.568L777.222 192H626c-22.091 0-40-17.909-40-40s17.909-40 40-40h174c61.856 0 112 50.144 112 112v174c0 22.091-17.909 40-40 40s-40-17.909-40-40V250.352z m0 339.909c0-22.092 17.909-40 40-40s40 17.908 40 40V800c0 61.856-50.144 112-112 112H224c-61.856 0-112-50.144-112-112V224c0-61.856 50.144-112 112-112h209.74c22.09 0 40 17.909 40 40s-17.91 40-40 40H224c-17.673 0-32 14.327-32 32v576c0 17.673 14.327 32 32 32h576c17.673 0 32-14.327 32-32V590.26z" fill="#8a8a8a" p-id="6033"></path></svg>
